<svg
  id="Layer_1"
  data-name="Layer 1"
  xmlns="http://www.w3.org/2000/svg"
  viewBox="0 0 844 623.833"
>
  <g class="cls-1">
    <path
      d="M458.791,344.79c-37.758-.92-75.933-.484-100.31.01a13.535,13.535,0,0,0,5.579-7.5c1.593-5.7-1.144-11.952-5.094-15.789a19.921,19.921,0,0,0-10.874-34.459q.111-.77.153-1.545a17.843,17.843,0,0,0-.338-4.53,16.048,16.048,0,0,1,30.267,6.556,2.5,2.5,0,0,0,3.218,2.265,10.918,10.918,0,0,1,12.3,16.431,2.5,2.5,0,0,0,2.386,3.852,6.5,6.5,0,0,1,.756-.052c3.926,0,6.1,3.481,6.457,6.716.321,2.894-2.469,5.8-3.967,7.367a5.393,5.393,0,0,0-1.545,2.148,2.5,2.5,0,0,0,2.558,3.2c4.638-.3,17.521-2.718,28.886-4.854,7.425-1.4,14.438-2.714,17.294-3.079,27.255-3.489,54.6-5.892,81.791-7.2a9.05,9.05,0,0,1-1.373-4.934c-26.952,1.33-54.044,3.721-81.053,7.178-3,.384-9.758,1.654-17.583,3.125-7.408,1.392-16.075,3.021-22.132,3.98a11.356,11.356,0,0,0,2.094-7.478c-.6-5.414-4.063-9.586-8.637-10.8a15.9,15.9,0,0,0-1.07-12.71c25.864,1.816,46.5,2.934,57.7,2.933,1.692,0,3.177-.025,4.424-.078a2.5,2.5,0,0,0,2.351-2.966,3.922,3.922,0,0,1-.071-.868,4.375,4.375,0,0,1,4.658-4.029,4.931,4.931,0,0,1,.753.092,2.5,2.5,0,0,0,2.948-2.163,7,7,0,0,1,7.326-5.914,7.383,7.383,0,0,1,4.309,1.548,2.5,2.5,0,0,0,3.383-.293,4.178,4.178,0,0,1,5.856-.21,2.5,2.5,0,0,0,4.1-1.116,7.145,7.145,0,0,1,7.215-4.937,7.284,7.284,0,0,1,6.647,4.668,2.5,2.5,0,0,0,3.582,1.336,4.337,4.337,0,0,1,1.833-.548,22.16,22.16,0,0,1-1.117-3.461,9.382,9.382,0,0,1-.212-1.389c-.166.03-.336.045-.5.084a12.468,12.468,0,0,0-10.063-5.687A12.315,12.315,0,0,0,492.8,275.3a9.236,9.236,0,0,0-8.524.856,12.39,12.39,0,0,0-5.474-1.468,12.139,12.139,0,0,0-11.928,8,9.379,9.379,0,0,0-8.845,7.919c-11.2.16-34.56-1.119-64.183-3.246a15.824,15.824,0,0,0-9.306-3.028,15.658,15.658,0,0,0-1.718.094,21.059,21.059,0,0,0-37.155-9.158,17.942,17.942,0,0,0-11.126-8.152A10.206,10.206,0,0,0,322.155,254.8a29.7,29.7,0,0,0-57,3.877c-.145-.013-.29-.023-.433-.031a13.123,13.123,0,0,0-13.818,12.391c-.016.3-.021.6-.016.9a29.648,29.648,0,0,0-6.656,2.7c-6.46-.61-12.846-1.212-19.123-1.189v4.662c4.318.135,8.686.547,13.094.965a29.7,29.7,0,0,0-3.928,38.483c-3.481,3.05-5.851,9.033-6.181,14.661-.316,5.37,1.118,9.794,4.016,12.9L187.2,346.173v5l54.932-1.287a2.5,2.5,0,0,0,.321-4.97c-8.7-1.339-9.6-8.348-9.36-12.408.383-6.519,3.941-11.924,6.061-12a2.5,2.5,0,0,0,.015-5l-.2-.007a24.693,24.693,0,0,1,15.108-39.169,2.5,2.5,0,0,0,1.988-2.958,8.087,8.087,0,0,1,10.387-9.37,2.5,2.5,0,0,0,3.234-2.089,24.7,24.7,0,0,1,48.46-3.15,2.5,2.5,0,0,0,3.742,1.508,5.2,5.2,0,0,1,6.992,7.414,2.5,2.5,0,0,0,1.949,3.941l.232.006a12.9,12.9,0,0,1,11.544,16.976,2.5,2.5,0,0,0,2.445,3.29c.423-.012.85-.02,1.283,0a14.919,14.919,0,0,1,7.226,27.477,2.5,2.5,0,0,0,.052,4.243c3.242,1.964,6.952,7.6,5.632,12.325-1.48,5.3-8.784,8.543-20.779,9.331-3.845.11-6.014.185-6.129.189a2.5,2.5,0,0,0,.088,5c2.217,0,4.284-.066,6.212-.19,17.394-.5,69.1-1.734,120.035-.493,17.021.415,34.433,1.254,51.849,2.4a8.983,8.983,0,0,1,.924-4.949C493.761,346.069,476.076,345.212,458.791,344.79Z"
    />
    <path
      d="M502.315,139.781H201.975a22.691,22.691,0,0,0-22.666,22.666v69.529h5V162.447a17.685,17.685,0,0,1,17.666-17.666H502.213A9.6,9.6,0,0,1,502.315,139.781Z"
    />
    <path
      d="M508.85,409.926H394.683v5H508.212A7.767,7.767,0,0,1,508.85,409.926Z"
    />
    <path
      d="M643.362,139.781h-20.4a8.463,8.463,0,0,1-.455,5h20.851a17.685,17.685,0,0,1,17.666,17.666V392.26a17.685,17.685,0,0,1-17.666,17.666h-63.9a6.979,6.979,0,0,1,.263,5h63.635a22.692,22.692,0,0,0,22.666-22.666V162.447A22.691,22.691,0,0,0,643.362,139.781Z"
    />
    <path
      d="M201.975,409.926a17.685,17.685,0,0,1-17.666-17.666V280.851h-5V392.26a22.692,22.692,0,0,0,22.666,22.666H361.2c-1.256-1.454-2.659-3.153-4.067-5Z"
    />
  </g>
  <path
    d="M537.132,123.537c.825,1.575,2.428,2.366,3.6,1.767s1.472-2.391.653-3.99c-.02-.038-.045-.07-.066-.108-.847-1.847-2.126-2.578-4.122-1.787-2.128.842-3.626,5.135-2.95,8.149Z"
  />
  <path
    d="M613.163,258.666V266.8a5.5,5.5,0,0,0,5.5,5.5h220.5v-36H635.536A22.374,22.374,0,0,0,613.163,258.666Z"
  />
  <path
    d="M616.163,278.292v3a2,2,0,0,0,2,2h221v-7h-221A2,2,0,0,0,616.163,278.292Z"
  />
  <path
    d="M839.163,93.6v-5H759.224a11.77,11.77,0,0,0,6.64-10.587V67.945a4.1,4.1,0,0,1-.926.115H622.365a35.142,35.142,0,0,0,2.3-5.881H764.626a1.566,1.566,0,0,0,1.566-1.566V56.661a1.566,1.566,0,0,0-1.566-1.566H625.464c0-1.8-.055-3.895-.173-5.882H764.938a4.041,4.041,0,0,1,.926.116V39a11.779,11.779,0,0,0-11.78-11.779H641.034a4.8,4.8,0,0,0-.926-1.276c-2.55-2.46-7.5-2.48-14.21-2.24-1.52.06-2.97.11-4.01.07-1.02-.03-4.18-.14-19.82,16.31l-.59.63-2.43,26.11-.15-.04a2.75,2.75,0,0,0-1.06-.55c-2.3-.53-2.98,1.52-3.62,3.51-.39,1.21-.94,2.95-1.61,5.1-4.26,13.68-14.25,45.7-21.24,55.17-1.99,2.7-5.84,7.14-10.65,12.39-.66-1.56-1.35-3.26-2.02-5.18.15-.21.33-.44.48-.64,1.73-2.32,4.63-6.19,3.67-10.09-1.02-4.09-4.47-5.02-7.52-5.85-3.11-.84-6.33-1.71-8.65-5.7-5.8-9.98-11.74-15.76-18.72-17.72h0l.048-.069c4.65-6.774-5.54-17.532-6.267-14.955-3.919,13.9-14.692,6.668-31.828,20.157-21.281,16.753-14.728,41.705-3.9,52.353C494,162.56,502.8,162.35,507.5,169.06c1.012,1.445,1.736,5.288,1.736,5.288a1.339,1.339,0,0,0,.226.017v0c2.18,10.32-.82,16.64-1.71,18.23-4.29,5.92-6.5,13.58-6.03,22.77,1.64,32.07,13.28,73.2,13.28,92.05,0,2.15,11,6.28,11,6.28h-.97c-2.56,0-9.43.13-10.03,1.58-1.71,4.13-1.06,5.98-1.57,10.99-1.24,12.2-6.22,26.29-6.19,26.29a96.359,96.359,0,0,0-3.86,16.74c-1.52,11.91,3.77,25.47,5.13,28.7-1.09,7.05-9.96,64.3-14.37,84.1-.73,3.3-2.85,7.33-4.54,10.56l-.23.43c-9.57,18.27-33.76,73.494-34.78,75.914a2.481,2.481,0,0,0,.88,3.03c.3.21.83.58,1.4.99-.31.38-.59.74-.86,1.08a73.668,73.668,0,0,1-6.4,7.26,16.641,16.641,0,0,0-3.68,15.34c1.19,4.13,4.8,9.55,15.21,11.93,4.85,1.11,7.46,3.53,11.08,6.88a67.949,67.949,0,0,0,10.27,8.16,2.54,2.54,0,0,0,1.34.38h37a2.477,2.477,0,0,0,1.89-.86,9.029,9.029,0,0,0,2.03-6.66,8.161,8.161,0,0,0-1.39-3.57,12.071,12.071,0,0,0-3.15-3.04,24.581,24.581,0,0,0-7.32-2.99c-5.47-1.55-11.12-3.16-16.3-13.72a24.139,24.139,0,0,1-.59-3.91c.3.1.6.21.89.31a2.513,2.513,0,0,0,3.09-1.28l31.85-64.514-3.62,64.874a2.5,2.5,0,0,0,2.27,2.62c.65.06,1.97.2,3.24.38-1.52,5.55-2.49,10.21-3.3,14.23a15.583,15.583,0,0,0,3.4,12.9,13.4,13.4,0,0,0,10.01,5.23h72a2.5,2.5,0,0,0,2.48-2.18,23.706,23.706,0,0,0,.18-2.92c0-5.34-1.75-12.17-8.33-13.48-.85-.17-1.82-.36-2.88-.57-7.87-1.54-22.51-4.41-28.34-7.32-1.1-.55-3.43-3.23-5.7-6.26h1.45a2.5,2.5,0,0,0,2.49-2.33l6.47-95.054c0-.07.01-.14.01-.21l-1.53-104.97a31.746,31.746,0,0,0,1.06-5.34l1.16-10.58.94-8.47c.15.01.31.01.46.02.88.02,1.76.04,2.63.05h.07a4.438,4.438,0,0,0,4.46-4.54c-.28-13.12.53-50.28.53-85.55,0-21.29-4.65-45.32-12.38-63.15,12.11-16.63,30.15-41.47,35.08-48.62,4.788-6.951,12.353-34.248,17.633-54.984H839.163v-5H622.447c.812-3.173,1.571-6.195,2.267-9ZM606.3,42.909c6.1-6.37,13.55-13.33,15.65-14.12,1.18.03,2.61-.02,4.13-.08,2.8-.1,9.28-.33,10.5.79-.07,3.6-5.09,5.28-8.49,5.28-1.68,0-3.83.92-8.08,7.59l-.62.96.33,1.1c.6,2.03.94,10.93.64,13.83-.46,4.52-3.56,9.87-5.24,12.49l-11.16-2.72Zm-63.94,74.55c3.35,5.77,8.15,7.07,11.66,8.02,2.93.79,3.7,1.14,3.97,2.22.4,1.6-1.69,4.39-2.81,5.89-1.2,1.59-2.06,2.74-1.56,4.26,1.11,3.34,2.28,6.04,3.32,8.41.03.06.05.12.07.17-11.61,12.44-26.84,27.72-35.74,35.61a35.229,35.229,0,0,0-6.28,3.47,38.051,38.051,0,0,0-.97-13.63v0a30.7,30.7,0,0,0,3.506-3.811,22.5,22.5,0,0,0,3.815-7.4,5.918,5.918,0,0,0-4.447-7.456,9.129,9.129,0,0,1-4.343-2.417c-4.686-4.439-3.317-12.565,5.013-12.423a7.008,7.008,0,0,1,5.283,2.214c1.148,1.523,2.625-2.618-.346-5.5-1.471-1.426-4.975-4.712-4.975-4.712s-14.925-10.994,3.317-26.7c1.119-.964,1.971-1.65,2.66-2.182C530.679,101.99,536.288,107.01,542.358,117.459Zm29.99,468.864H568.4a2.5,2.5,0,0,0-2.08,3.89c1.11,1.66,6.83,10.06,10.39,11.84,6.43,3.22,20.94,6.06,29.61,7.76,1.05.2,2.01.39,2.86.56,3.66.73,4.25,5.73,4.26,8.68h-69.61a8.414,8.414,0,0,1-6.14-3.4,10.565,10.565,0,0,1-2.36-8.75c.95-4.74,2.03-9.92,3.94-16.45a2.507,2.507,0,0,0-1.71-3.11,33.4,33.4,0,0,0-4.23-.75l4.15-74.524,5.37-11.16c2.23-3.69,4.92-11.57,5.22-12.47,6.65-19.66,20.74-75.45,22.56-82.69l1.38-1.17a32.516,32.516,0,0,0,5.27-5.74l1.37,94.86Zm6.04-368.4c6.29,16.59,10.05,37.68,10.05,56.43,0,17.19-.19,34.58-.36,49.93-.07,6.53-.13,12.52-.18,17.77-.03,3.57-.05,6.8-.05,9.64,0,3.05.01,5.65.05,7.75l-1.32-.03c-.25,0-.5-.01-.75-.02-.59-.01-1.18-.03-1.77-.05-.24-.01-.48-.01-.73-.02-.59-.02-1.19-.05-1.79-.08q-.36,0-.72-.03a345.347,345.347,0,0,1-60.868-8.66l-1.194,4.849h0a351.488,351.488,0,0,0,61.51,8.79l-.9,8.13-1.16,10.55a27.364,27.364,0,0,1-1.033,4.983l-.059.031,0,.166a27.282,27.282,0,0,1-8.37,12.73l-1.97,1.69a2.443,2.443,0,0,0-.8,1.29c-.16.62-15.63,62.34-22.64,83.08-1.35,4-3.43,9.32-4.82,11.56-.04.07-.08.15-.12.23l-.21.43-2.82,5.88-.01.01-2.82,5.86-35.12,71.314,0,0-27.241-11.963-2.01,4.578,22.564,9.909h0a2.6,2.6,0,0,0-.12,1.72c.12.43.26,1.81.37,2.91.28,2.89.51,4.87,1.12,6.12,6.16,12.57,13.51,14.66,19.42,16.34a19.753,19.753,0,0,1,5.86,2.31,4.9,4.9,0,0,1,2.41,3.09,3.419,3.419,0,0,1-.34,1.91h-34.88a63.7,63.7,0,0,1-8.95-7.22c-3.88-3.57-7.22-6.66-13.36-8.07-6.37-1.46-10.35-4.38-11.53-8.44a11.667,11.667,0,0,1,2.42-10.43,77.292,77.292,0,0,0,6.76-7.67c.69-.86,1.48-1.85,2.46-3.05a2.5,2.5,0,0,0-.3-3.46c-.51-.45-1.34-1.07-2.09-1.61,4.33-10.16,25.3-57.424,33.82-73.694l.22-.43c1.84-3.49,4.12-7.85,5-11.79,4.67-20.98,14.27-83.4,14.54-85.11v-.03a2.615,2.615,0,0,0-.19-1.41,70.158,70.158,0,0,1-2.97-8.43v-.01c-1.5-5.23-2.85-12.11-2.06-18.26a92.382,92.382,0,0,1,3.76-16.13c.464-1.419,1.4-4.734,1.518-4.873.573-1.832,1.222-4.017,1.862-6.457l.039-.153.15-.608.01,0h0c.14-.57.29-1.14.43-1.74v-.01c.15-.6.29-1.21.43-1.84q.27-1.2.51-2.46a.425.425,0,0,0,.02-.11c.56-2.8,1.03-5.75,1.34-8.78.17-1.74.22-3.15.26-4.29a17.477,17.477,0,0,1,.34-3.48,47.058,47.058,0,0,1,6.02-.31H526a5,5,0,0,0,1.76-9.68,57.332,57.332,0,0,1-7.79-3.56c-.32-9.31-2.77-22.4-5.58-37.38-3.2-17.07-6.83-36.41-7.67-52.97-.38-7.31,1.09-13.54,4.38-18.56a23.323,23.323,0,0,1,2.45-3.17c.07-.08.15-.16.23-.24a21.122,21.122,0,0,1,1.59-1.55,26.455,26.455,0,0,0-1.08,4.01,26.886,26.886,0,0,0,2.19,16.88c3.97,8.42,12.32,15.22,19.42,15.82l.42-4.98c-4.71-.4-11.73-5.36-15.32-12.97a22,22,0,0,1-1.17-16.39v-.01a26.963,26.963,0,0,1,2.83-6.05c.2-.33.41-.66.64-.99l.01-.01c.21-.19.43-.37.65-.57,2.27-1.98,4.95-4.46,7.89-7.25,2.62-2.49,5.44-5.24,8.35-8.12.85-.85,1.72-1.72,2.58-2.59h.01c5.47-5.48,11.12-11.31,16.22-16.73l1.96-2.11c.65-.69,1.28-1.38,1.91-2.05,5.62-6.1,10.2-11.35,12.51-14.49,7.49-10.14,17.29-41.55,22-56.65.51-1.63,1-3.22,1.39-4.43l7.38,1.8,17.21,4.21c-.25,1.06-.52,2.2-.8,3.4-5.18,21.69-16.04,64.17-21.54,72.14-4.21,6.11-18.1,25.28-29.6,41.1-1.04,1.42-2.06,2.82-3.05,4.18-7.66,10.53-13.62,18.7-13.78,18.9l4.04,2.95c.15-.2,5.57-7.63,12.72-17.45a76.873,76.873,0,0,1,3.95,7.46q1.185,2.52,2.3,5.33C577.878,216.579,578.128,217.239,578.388,217.919ZM628.6,107.6c-5.473,21.328-12.5,46.234-16.584,52.144-4.68,6.79-21.36,29.77-33.38,46.29a75.257,75.257,0,0,0-4.13-7.22c11.7-16.08,26.29-36.2,30.64-42.51,4.317-6.265,10.882-29.075,16.006-48.7Z"
  />
  <path
    class="cls-2"
    d="M.151-.084v624l150.7.042.017-.042H693.445l.017.042h150.7V-.084Zm5,86.108H227.507a1.024,1.024,0,0,1,1.023,1.023V94a1.024,1.024,0,0,1-1.023,1.023H5.151Zm0,150.935H207.656a19.9,19.9,0,0,1,19.874,19.873v8.13a3,3,0,0,1-3,3H5.151Zm0,36h215v3h-215Zm0,237.01A17.966,17.966,0,0,1,23.1,492.024H207.278A19.9,19.9,0,0,1,227.151,511.9v8.13a3,3,0,0,1-3,3h-219ZM147.473,618.917H5.151V528.432H183.36Zm279.611,0H415.019V451.024h12.065Zm412.079,0H696.84l-35.887-90.485h178.21Zm0-95.893h-219a3,3,0,0,1-3-3V511.9a19.9,19.9,0,0,1,19.873-19.873h184.18a17.966,17.966,0,0,1,17.947,17.945Zm0-27.329a22.912,22.912,0,0,0-17.947-8.671H637.036A24.9,24.9,0,0,0,612.163,511.9v8.13a8.006,8.006,0,0,0,8,8h35.252l36.05,90.893H432.084V451.024h70.593a7.945,7.945,0,0,1,1.1-4.605c.087-.13.159-.264.24-.395H311.449a.293.293,0,0,1-.292-.293V435.316a.292.292,0,0,1,.292-.292h194.4q.21-2.511.588-5H399.01l-4.327-11.394V372.088h-30V384.46l-1.765-.883a11.27,11.27,0,0,0-9.148-.48,8.176,8.176,0,0,0-5.363,5.95c-2.093,9.4,11.835,25.036,16.154,29.6h0c.026.028.057.047.084.073l-4.29,11.3H311.449a5.3,5.3,0,0,0-5.292,5.292v10.415a5.3,5.3,0,0,0,5.292,5.293h98.57V618.917H152.852L188.9,528.024h35.253a8.006,8.006,0,0,0,8-8V511.9a24.9,24.9,0,0,0-24.873-24.873H23.1A22.908,22.908,0,0,0,5.151,495.7V280.959h220v-8.031a8,8,0,0,0,7.379-7.966v-8.13a24.9,24.9,0,0,0-24.874-24.873H5.151V100.024H227.507A6.03,6.03,0,0,0,233.53,94V87.047a6.029,6.029,0,0,0-6.023-6.023H5.151V4.916H839.163ZM389.683,392.922v26.625l3.877,10.208H365.807l3.876-10.208V392.922Zm-20-5V377.088h20v10.834Zm-5.5,1.878v20.921c-6.441-7.647-11.854-16.284-10.9-20.588a3.215,3.215,0,0,1,2.316-2.384,5.875,5.875,0,0,1,2.154-.4,6.567,6.567,0,0,1,2.925.7Z"
  />
  <g class="cls-1">
    <path
      d="M592.666,307.709c.173,1.25-.359,2.5-.185,3.75,0,.042,0,.082.008.124,21.663.444,44.814,1.914,65,3.674v-5.02c-20.431-1.774-43.15-3.251-65.038-3.672C592.535,306.941,592.612,307.322,592.666,307.709Z"
    />
    <path
      d="M591.21,352.761l.009.032a9.1,9.1,0,0,1,.753,5.083c21.206,2.345,47.324,5.679,65.513,8.114v-5.046C639.059,358.482,612.681,355.124,591.21,352.761Z"
    />
    <path
      d="M588.311,280.409a9.046,9.046,0,0,1,.891,4.971c24.992-1.244,54-2.869,68.283-4.213v-5.025C643.552,277.477,613.751,279.142,588.311,280.409Z"
    />
  </g>
</svg>
